<mxfile host="app.diagrams.net" modified="2024-06-10T17:52:13.653Z" agent="Mozilla/5.0 (Windows NT 10.0; Win64; x64) AppleWebKit/537.36 (KHTML, like Gecko) Chrome/124.0.0.0 Safari/537.36" etag="LiT9ese8nFQHCUCtsKfL" version="24.4.4" type="github" pages="7">
  <diagram name="usecase-1" id="-068rxo9nLcsZTWhR81y">
    <mxGraphModel dx="1434" dy="811" grid="1" gridSize="10" guides="1" tooltips="1" connect="1" arrows="1" fold="1" page="1" pageScale="1" pageWidth="827" pageHeight="1169" math="0" shadow="0">
      <root>
        <mxCell id="0" />
        <mxCell id="1" parent="0" />
      </root>
    </mxGraphModel>
  </diagram>
  <diagram name="usecase-2" id="Ntn41O32neM39yz7EqBL">
    <mxGraphModel dx="1434" dy="1980" grid="1" gridSize="10" guides="1" tooltips="1" connect="1" arrows="1" fold="1" page="1" pageScale="1" pageWidth="827" pageHeight="1169" math="0" shadow="0">
      <root>
        <mxCell id="0" />
        <mxCell id="1" parent="0" />
        <mxCell id="HXAvsPD5YMpDM4ftjybx-1" value="Manage Servers" style="rounded=0;html=1;horizontal=1;verticalAlign=top;align=center;whiteSpace=wrap;" parent="1" vertex="1">
          <mxGeometry x="222" y="-900" width="230" height="240" as="geometry" />
        </mxCell>
        <mxCell id="HXAvsPD5YMpDM4ftjybx-2" value="Create Server" style="ellipse;whiteSpace=wrap;html=1;" parent="1" vertex="1">
          <mxGeometry x="290.5" y="-870" width="93" height="40" as="geometry" />
        </mxCell>
        <mxCell id="HXAvsPD5YMpDM4ftjybx-3" value="Edit server" style="ellipse;whiteSpace=wrap;html=1;" parent="1" vertex="1">
          <mxGeometry x="290.5" y="-800" width="93" height="40" as="geometry" />
        </mxCell>
        <mxCell id="HXAvsPD5YMpDM4ftjybx-4" value="Delete server" style="ellipse;whiteSpace=wrap;html=1;" parent="1" vertex="1">
          <mxGeometry x="290.5" y="-730" width="93" height="40" as="geometry" />
        </mxCell>
        <mxCell id="HXAvsPD5YMpDM4ftjybx-9" value="Admin" style="shape=umlActor;verticalLabelPosition=bottom;verticalAlign=top;html=1;outlineConnect=0;" parent="1" vertex="1">
          <mxGeometry x="90" y="-760" width="30" height="60" as="geometry" />
        </mxCell>
        <mxCell id="HXAvsPD5YMpDM4ftjybx-10" value="" style="endArrow=none;html=1;rounded=0;entryX=0;entryY=0.5;entryDx=0;entryDy=0;" parent="1" target="HXAvsPD5YMpDM4ftjybx-2" edge="1">
          <mxGeometry width="50" height="50" relative="1" as="geometry">
            <mxPoint x="120" y="-730" as="sourcePoint" />
            <mxPoint x="370" y="-680" as="targetPoint" />
          </mxGeometry>
        </mxCell>
        <mxCell id="HXAvsPD5YMpDM4ftjybx-11" value="" style="endArrow=none;html=1;rounded=0;entryX=0;entryY=0.5;entryDx=0;entryDy=0;" parent="1" target="HXAvsPD5YMpDM4ftjybx-3" edge="1">
          <mxGeometry width="50" height="50" relative="1" as="geometry">
            <mxPoint x="120" y="-730" as="sourcePoint" />
            <mxPoint x="370" y="-680" as="targetPoint" />
          </mxGeometry>
        </mxCell>
        <mxCell id="HXAvsPD5YMpDM4ftjybx-12" value="" style="endArrow=none;html=1;rounded=0;entryX=0;entryY=0.5;entryDx=0;entryDy=0;" parent="1" source="HXAvsPD5YMpDM4ftjybx-9" target="HXAvsPD5YMpDM4ftjybx-4" edge="1">
          <mxGeometry width="50" height="50" relative="1" as="geometry">
            <mxPoint x="130" y="-726" as="sourcePoint" />
            <mxPoint x="301" y="-790" as="targetPoint" />
          </mxGeometry>
        </mxCell>
      </root>
    </mxGraphModel>
  </diagram>
  <diagram name="usecase-3" id="v6g_n_yok36YdHzXTnYP">
    <mxGraphModel dx="1434" dy="1980" grid="1" gridSize="10" guides="1" tooltips="1" connect="1" arrows="1" fold="1" page="1" pageScale="1" pageWidth="827" pageHeight="1169" math="0" shadow="0">
      <root>
        <mxCell id="0" />
        <mxCell id="1" parent="0" />
        <mxCell id="pumiFzmDb8rvEAISeD19-1" value="Manage chanels" style="rounded=0;html=1;horizontal=1;verticalAlign=top;align=center;whiteSpace=wrap;" parent="1" vertex="1">
          <mxGeometry x="292" y="-800" width="230" height="240" as="geometry" />
        </mxCell>
        <mxCell id="pumiFzmDb8rvEAISeD19-2" value="Create chanel" style="ellipse;whiteSpace=wrap;html=1;" parent="1" vertex="1">
          <mxGeometry x="360.5" y="-770" width="93" height="40" as="geometry" />
        </mxCell>
        <mxCell id="pumiFzmDb8rvEAISeD19-3" value="Edit chanel" style="ellipse;whiteSpace=wrap;html=1;" parent="1" vertex="1">
          <mxGeometry x="360.5" y="-700" width="93" height="40" as="geometry" />
        </mxCell>
        <mxCell id="pumiFzmDb8rvEAISeD19-4" value="Delete chanel" style="ellipse;whiteSpace=wrap;html=1;" parent="1" vertex="1">
          <mxGeometry x="360.5" y="-630" width="93" height="40" as="geometry" />
        </mxCell>
        <mxCell id="pumiFzmDb8rvEAISeD19-5" value="Admin" style="shape=umlActor;verticalLabelPosition=bottom;verticalAlign=top;html=1;outlineConnect=0;" parent="1" vertex="1">
          <mxGeometry x="160" y="-710" width="30" height="60" as="geometry" />
        </mxCell>
        <mxCell id="pumiFzmDb8rvEAISeD19-6" value="" style="endArrow=none;html=1;rounded=0;entryX=0;entryY=0.5;entryDx=0;entryDy=0;" parent="1" source="pumiFzmDb8rvEAISeD19-5" target="pumiFzmDb8rvEAISeD19-2" edge="1">
          <mxGeometry width="50" height="50" relative="1" as="geometry">
            <mxPoint x="190" y="-630" as="sourcePoint" />
            <mxPoint x="440" y="-580" as="targetPoint" />
          </mxGeometry>
        </mxCell>
        <mxCell id="pumiFzmDb8rvEAISeD19-7" value="" style="endArrow=none;html=1;rounded=0;entryX=0;entryY=0.5;entryDx=0;entryDy=0;" parent="1" source="pumiFzmDb8rvEAISeD19-5" target="pumiFzmDb8rvEAISeD19-3" edge="1">
          <mxGeometry width="50" height="50" relative="1" as="geometry">
            <mxPoint x="190" y="-630" as="sourcePoint" />
            <mxPoint x="440" y="-580" as="targetPoint" />
          </mxGeometry>
        </mxCell>
        <mxCell id="pumiFzmDb8rvEAISeD19-8" value="" style="endArrow=none;html=1;rounded=0;entryX=0;entryY=0.5;entryDx=0;entryDy=0;" parent="1" source="pumiFzmDb8rvEAISeD19-5" target="pumiFzmDb8rvEAISeD19-4" edge="1">
          <mxGeometry width="50" height="50" relative="1" as="geometry">
            <mxPoint x="200" y="-626" as="sourcePoint" />
            <mxPoint x="371" y="-690" as="targetPoint" />
          </mxGeometry>
        </mxCell>
        <mxCell id="pumiFzmDb8rvEAISeD19-9" value="Moderater" style="shape=umlActor;verticalLabelPosition=bottom;verticalAlign=top;html=1;outlineConnect=0;" parent="1" vertex="1">
          <mxGeometry x="570" y="-710" width="30" height="60" as="geometry" />
        </mxCell>
        <mxCell id="pumiFzmDb8rvEAISeD19-10" value="" style="endArrow=none;html=1;rounded=0;entryX=0;entryY=0.3333333333333333;entryDx=0;entryDy=0;exitX=1;exitY=0.5;exitDx=0;exitDy=0;entryPerimeter=0;" parent="1" source="pumiFzmDb8rvEAISeD19-2" target="pumiFzmDb8rvEAISeD19-9" edge="1">
          <mxGeometry width="50" height="50" relative="1" as="geometry">
            <mxPoint x="600" y="-630" as="sourcePoint" />
            <mxPoint x="770" y="-750" as="targetPoint" />
          </mxGeometry>
        </mxCell>
        <mxCell id="pumiFzmDb8rvEAISeD19-11" value="" style="endArrow=none;html=1;rounded=0;exitX=1;exitY=0.5;exitDx=0;exitDy=0;" parent="1" source="pumiFzmDb8rvEAISeD19-3" target="pumiFzmDb8rvEAISeD19-9" edge="1">
          <mxGeometry width="50" height="50" relative="1" as="geometry">
            <mxPoint x="600" y="-630" as="sourcePoint" />
            <mxPoint x="560" y="-680" as="targetPoint" />
          </mxGeometry>
        </mxCell>
        <mxCell id="pumiFzmDb8rvEAISeD19-12" value="" style="endArrow=none;html=1;rounded=0;exitX=1;exitY=0.5;exitDx=0;exitDy=0;" parent="1" source="pumiFzmDb8rvEAISeD19-4" target="pumiFzmDb8rvEAISeD19-9" edge="1">
          <mxGeometry width="50" height="50" relative="1" as="geometry">
            <mxPoint x="610" y="-626" as="sourcePoint" />
            <mxPoint x="770" y="-610" as="targetPoint" />
          </mxGeometry>
        </mxCell>
      </root>
    </mxGraphModel>
  </diagram>
  <diagram name="usecase-4" id="BlYUCvgkNzneEwopPF8n">
    <mxGraphModel dx="1434" dy="1980" grid="1" gridSize="10" guides="1" tooltips="1" connect="1" arrows="1" fold="1" page="1" pageScale="1" pageWidth="827" pageHeight="1169" math="0" shadow="0">
      <root>
        <mxCell id="0" />
        <mxCell id="1" parent="0" />
        <mxCell id="Qq8YXL3rnGvPAIapbvS8-1" value="Manage member" style="rounded=0;html=1;horizontal=1;verticalAlign=top;align=center;whiteSpace=wrap;" parent="1" vertex="1">
          <mxGeometry x="292" y="-740" width="230" height="240" as="geometry" />
        </mxCell>
        <mxCell id="Qq8YXL3rnGvPAIapbvS8-2" value="Invite member" style="ellipse;whiteSpace=wrap;html=1;" parent="1" vertex="1">
          <mxGeometry x="360.5" y="-710" width="93" height="40" as="geometry" />
        </mxCell>
        <mxCell id="Qq8YXL3rnGvPAIapbvS8-3" value="Kick member" style="ellipse;whiteSpace=wrap;html=1;" parent="1" vertex="1">
          <mxGeometry x="360.5" y="-640" width="93" height="40" as="geometry" />
        </mxCell>
        <mxCell id="Qq8YXL3rnGvPAIapbvS8-4" value="Change role" style="ellipse;whiteSpace=wrap;html=1;" parent="1" vertex="1">
          <mxGeometry x="360.5" y="-570" width="93" height="40" as="geometry" />
        </mxCell>
        <mxCell id="Qq8YXL3rnGvPAIapbvS8-5" value="Admin" style="shape=umlActor;verticalLabelPosition=bottom;verticalAlign=top;html=1;outlineConnect=0;" parent="1" vertex="1">
          <mxGeometry x="160" y="-650" width="30" height="60" as="geometry" />
        </mxCell>
        <mxCell id="Qq8YXL3rnGvPAIapbvS8-6" value="" style="endArrow=none;html=1;rounded=0;entryX=0;entryY=0.5;entryDx=0;entryDy=0;" parent="1" source="Qq8YXL3rnGvPAIapbvS8-5" target="Qq8YXL3rnGvPAIapbvS8-2" edge="1">
          <mxGeometry width="50" height="50" relative="1" as="geometry">
            <mxPoint x="190" y="-570" as="sourcePoint" />
            <mxPoint x="440" y="-520" as="targetPoint" />
          </mxGeometry>
        </mxCell>
        <mxCell id="Qq8YXL3rnGvPAIapbvS8-7" value="" style="endArrow=none;html=1;rounded=0;entryX=0;entryY=0.5;entryDx=0;entryDy=0;" parent="1" source="Qq8YXL3rnGvPAIapbvS8-5" target="Qq8YXL3rnGvPAIapbvS8-3" edge="1">
          <mxGeometry width="50" height="50" relative="1" as="geometry">
            <mxPoint x="190" y="-570" as="sourcePoint" />
            <mxPoint x="440" y="-520" as="targetPoint" />
          </mxGeometry>
        </mxCell>
        <mxCell id="Qq8YXL3rnGvPAIapbvS8-8" value="" style="endArrow=none;html=1;rounded=0;entryX=0;entryY=0.5;entryDx=0;entryDy=0;" parent="1" source="Qq8YXL3rnGvPAIapbvS8-5" target="Qq8YXL3rnGvPAIapbvS8-4" edge="1">
          <mxGeometry width="50" height="50" relative="1" as="geometry">
            <mxPoint x="200" y="-566" as="sourcePoint" />
            <mxPoint x="371" y="-630" as="targetPoint" />
          </mxGeometry>
        </mxCell>
        <mxCell id="Qq8YXL3rnGvPAIapbvS8-9" value="Moderater" style="shape=umlActor;verticalLabelPosition=bottom;verticalAlign=top;html=1;outlineConnect=0;" parent="1" vertex="1">
          <mxGeometry x="570" y="-650" width="30" height="60" as="geometry" />
        </mxCell>
        <mxCell id="Qq8YXL3rnGvPAIapbvS8-10" value="" style="endArrow=none;html=1;rounded=0;entryX=0;entryY=0.3333333333333333;entryDx=0;entryDy=0;exitX=1;exitY=0.5;exitDx=0;exitDy=0;entryPerimeter=0;" parent="1" source="Qq8YXL3rnGvPAIapbvS8-2" target="Qq8YXL3rnGvPAIapbvS8-9" edge="1">
          <mxGeometry width="50" height="50" relative="1" as="geometry">
            <mxPoint x="600" y="-570" as="sourcePoint" />
            <mxPoint x="770" y="-690" as="targetPoint" />
          </mxGeometry>
        </mxCell>
      </root>
    </mxGraphModel>
  </diagram>
  <diagram name="usecase-5" id="-QqH9OpgYs0vWKgC2uF0">
    <mxGraphModel dx="1434" dy="1980" grid="1" gridSize="10" guides="1" tooltips="1" connect="1" arrows="1" fold="1" page="1" pageScale="1" pageWidth="827" pageHeight="1169" math="0" shadow="0">
      <root>
        <mxCell id="0" />
        <mxCell id="1" parent="0" />
        <mxCell id="tXt3o2RoG_ZHRER9DkCI-1" value="Comunication" style="rounded=0;html=1;horizontal=1;verticalAlign=top;align=center;whiteSpace=wrap;" parent="1" vertex="1">
          <mxGeometry x="222" y="-930" width="230" height="450" as="geometry" />
        </mxCell>
        <mxCell id="tXt3o2RoG_ZHRER9DkCI-2" value="Send message" style="ellipse;whiteSpace=wrap;html=1;" parent="1" vertex="1">
          <mxGeometry x="290.5" y="-890" width="93" height="40" as="geometry" />
        </mxCell>
        <mxCell id="tXt3o2RoG_ZHRER9DkCI-3" value="Edit message" style="ellipse;whiteSpace=wrap;html=1;" parent="1" vertex="1">
          <mxGeometry x="290.5" y="-820" width="93" height="40" as="geometry" />
        </mxCell>
        <mxCell id="tXt3o2RoG_ZHRER9DkCI-4" value="Delete message" style="ellipse;whiteSpace=wrap;html=1;" parent="1" vertex="1">
          <mxGeometry x="290.5" y="-750" width="93" height="40" as="geometry" />
        </mxCell>
        <mxCell id="tXt3o2RoG_ZHRER9DkCI-6" value="Video call" style="ellipse;whiteSpace=wrap;html=1;" parent="1" vertex="1">
          <mxGeometry x="287" y="-584" width="100" height="40" as="geometry" />
        </mxCell>
        <mxCell id="tXt3o2RoG_ZHRER9DkCI-8" value="File Upload" style="ellipse;whiteSpace=wrap;html=1;" parent="1" vertex="1">
          <mxGeometry x="283.5" y="-660" width="100" height="40" as="geometry" />
        </mxCell>
        <mxCell id="tXt3o2RoG_ZHRER9DkCI-9" value="User" style="shape=umlActor;verticalLabelPosition=bottom;verticalAlign=top;html=1;outlineConnect=0;" parent="1" vertex="1">
          <mxGeometry x="90" y="-760" width="30" height="60" as="geometry" />
        </mxCell>
        <mxCell id="tXt3o2RoG_ZHRER9DkCI-10" value="" style="endArrow=none;html=1;rounded=0;entryX=0;entryY=0.5;entryDx=0;entryDy=0;" parent="1" target="tXt3o2RoG_ZHRER9DkCI-2" edge="1">
          <mxGeometry width="50" height="50" relative="1" as="geometry">
            <mxPoint x="120" y="-730" as="sourcePoint" />
            <mxPoint x="370" y="-680" as="targetPoint" />
          </mxGeometry>
        </mxCell>
        <mxCell id="tXt3o2RoG_ZHRER9DkCI-11" value="" style="endArrow=none;html=1;rounded=0;entryX=0;entryY=0.5;entryDx=0;entryDy=0;" parent="1" target="tXt3o2RoG_ZHRER9DkCI-3" edge="1">
          <mxGeometry width="50" height="50" relative="1" as="geometry">
            <mxPoint x="120" y="-730" as="sourcePoint" />
            <mxPoint x="370" y="-680" as="targetPoint" />
          </mxGeometry>
        </mxCell>
        <mxCell id="tXt3o2RoG_ZHRER9DkCI-12" value="" style="endArrow=none;html=1;rounded=0;entryX=0;entryY=0.5;entryDx=0;entryDy=0;" parent="1" source="tXt3o2RoG_ZHRER9DkCI-9" target="tXt3o2RoG_ZHRER9DkCI-4" edge="1">
          <mxGeometry width="50" height="50" relative="1" as="geometry">
            <mxPoint x="130" y="-726" as="sourcePoint" />
            <mxPoint x="301" y="-790" as="targetPoint" />
          </mxGeometry>
        </mxCell>
        <mxCell id="tXt3o2RoG_ZHRER9DkCI-13" value="" style="endArrow=none;html=1;rounded=0;entryX=0;entryY=0.5;entryDx=0;entryDy=0;" parent="1" target="tXt3o2RoG_ZHRER9DkCI-8" edge="1">
          <mxGeometry width="50" height="50" relative="1" as="geometry">
            <mxPoint x="120" y="-730" as="sourcePoint" />
            <mxPoint x="297" y="-720" as="targetPoint" />
          </mxGeometry>
        </mxCell>
        <mxCell id="tXt3o2RoG_ZHRER9DkCI-15" value="" style="endArrow=none;html=1;rounded=0;entryX=0.013;entryY=0.603;entryDx=0;entryDy=0;entryPerimeter=0;" parent="1" target="tXt3o2RoG_ZHRER9DkCI-6" edge="1">
          <mxGeometry width="50" height="50" relative="1" as="geometry">
            <mxPoint x="120" y="-730" as="sourcePoint" />
            <mxPoint x="300" y="-594" as="targetPoint" />
          </mxGeometry>
        </mxCell>
      </root>
    </mxGraphModel>
  </diagram>
  <diagram name="package-front" id="_MWICaSpG6XFs2QtehFB">
    <mxGraphModel dx="1434" dy="811" grid="1" gridSize="10" guides="1" tooltips="1" connect="1" arrows="1" fold="1" page="1" pageScale="1" pageWidth="827" pageHeight="1169" math="0" shadow="0">
      <root>
        <mxCell id="0" />
        <mxCell id="1" parent="0" />
        <mxCell id="-LgiXM9xxB63iOGA57a7-11" style="edgeStyle=orthogonalEdgeStyle;rounded=0;orthogonalLoop=1;jettySize=auto;html=1;dashed=1;" parent="1" source="-LgiXM9xxB63iOGA57a7-1" target="-LgiXM9xxB63iOGA57a7-5" edge="1">
          <mxGeometry relative="1" as="geometry" />
        </mxCell>
        <mxCell id="HuZPSis6uVJb7G_-cWzI-1" value="Import" style="edgeLabel;html=1;align=center;verticalAlign=middle;resizable=0;points=[];" parent="-LgiXM9xxB63iOGA57a7-11" vertex="1" connectable="0">
          <mxGeometry x="-0.0071" relative="1" as="geometry">
            <mxPoint as="offset" />
          </mxGeometry>
        </mxCell>
        <mxCell id="-LgiXM9xxB63iOGA57a7-1" value="App" style="shape=folder;fontStyle=1;spacingTop=10;tabWidth=40;tabHeight=14;tabPosition=left;html=1;whiteSpace=wrap;" parent="1" vertex="1">
          <mxGeometry x="340" y="160" width="140" height="100" as="geometry" />
        </mxCell>
        <mxCell id="-LgiXM9xxB63iOGA57a7-2" value="Hooks" style="shape=folder;fontStyle=1;spacingTop=10;tabWidth=40;tabHeight=14;tabPosition=left;html=1;whiteSpace=wrap;" parent="1" vertex="1">
          <mxGeometry x="340" y="510" width="140" height="100" as="geometry" />
        </mxCell>
        <mxCell id="-LgiXM9xxB63iOGA57a7-3" value="Lib" style="shape=folder;fontStyle=1;spacingTop=10;tabWidth=40;tabHeight=14;tabPosition=left;html=1;whiteSpace=wrap;" parent="1" vertex="1">
          <mxGeometry x="100" y="270" width="140" height="100" as="geometry" />
        </mxCell>
        <mxCell id="-LgiXM9xxB63iOGA57a7-5" value="Components" style="shape=folder;fontStyle=1;spacingTop=10;tabWidth=40;tabHeight=14;tabPosition=left;html=1;whiteSpace=wrap;" parent="1" vertex="1">
          <mxGeometry x="340" y="340" width="140" height="100" as="geometry" />
        </mxCell>
        <mxCell id="-LgiXM9xxB63iOGA57a7-6" style="edgeStyle=orthogonalEdgeStyle;rounded=0;orthogonalLoop=1;jettySize=auto;html=1;entryX=0.5;entryY=1;entryDx=0;entryDy=0;entryPerimeter=0;dashed=1;" parent="1" source="-LgiXM9xxB63iOGA57a7-5" target="-LgiXM9xxB63iOGA57a7-3" edge="1">
          <mxGeometry relative="1" as="geometry" />
        </mxCell>
        <mxCell id="HuZPSis6uVJb7G_-cWzI-6" value="Use" style="edgeLabel;html=1;align=center;verticalAlign=middle;resizable=0;points=[];" parent="-LgiXM9xxB63iOGA57a7-6" vertex="1" connectable="0">
          <mxGeometry x="-0.2015" y="-2" relative="1" as="geometry">
            <mxPoint as="offset" />
          </mxGeometry>
        </mxCell>
        <mxCell id="-LgiXM9xxB63iOGA57a7-7" style="edgeStyle=orthogonalEdgeStyle;rounded=0;orthogonalLoop=1;jettySize=auto;html=1;dashed=1;" parent="1" source="-LgiXM9xxB63iOGA57a7-5" target="-LgiXM9xxB63iOGA57a7-2" edge="1">
          <mxGeometry relative="1" as="geometry" />
        </mxCell>
        <mxCell id="HuZPSis6uVJb7G_-cWzI-2" value="Import" style="edgeLabel;html=1;align=center;verticalAlign=middle;resizable=0;points=[];" parent="-LgiXM9xxB63iOGA57a7-7" vertex="1" connectable="0">
          <mxGeometry x="-0.0422" y="-2" relative="1" as="geometry">
            <mxPoint as="offset" />
          </mxGeometry>
        </mxCell>
        <mxCell id="-LgiXM9xxB63iOGA57a7-10" style="edgeStyle=orthogonalEdgeStyle;rounded=0;orthogonalLoop=1;jettySize=auto;html=1;entryX=0.536;entryY=0.15;entryDx=0;entryDy=0;entryPerimeter=0;dashed=1;" parent="1" source="-LgiXM9xxB63iOGA57a7-1" target="-LgiXM9xxB63iOGA57a7-3" edge="1">
          <mxGeometry relative="1" as="geometry" />
        </mxCell>
        <mxCell id="HuZPSis6uVJb7G_-cWzI-7" value="Use" style="edgeLabel;html=1;align=center;verticalAlign=middle;resizable=0;points=[];" parent="-LgiXM9xxB63iOGA57a7-10" vertex="1" connectable="0">
          <mxGeometry x="0.6742" relative="1" as="geometry">
            <mxPoint as="offset" />
          </mxGeometry>
        </mxCell>
      </root>
    </mxGraphModel>
  </diagram>
  <diagram name="package-back" id="XG55pxcvheN0U6S4gjRp">
    <mxGraphModel dx="1195" dy="676" grid="1" gridSize="10" guides="1" tooltips="1" connect="1" arrows="1" fold="1" page="1" pageScale="1" pageWidth="827" pageHeight="1169" math="0" shadow="0">
      <root>
        <mxCell id="0" />
        <mxCell id="1" parent="0" />
        <mxCell id="PTccaOiWmIQxSzP1MfT7-11" value="use&lt;div&gt;&lt;br&gt;&lt;/div&gt;" style="edgeStyle=orthogonalEdgeStyle;rounded=0;orthogonalLoop=1;jettySize=auto;html=1;dashed=1;" edge="1" parent="1" source="PTccaOiWmIQxSzP1MfT7-2" target="PTccaOiWmIQxSzP1MfT7-5">
          <mxGeometry relative="1" as="geometry">
            <mxPoint as="offset" />
          </mxGeometry>
        </mxCell>
        <mxCell id="PTccaOiWmIQxSzP1MfT7-2" value="App" style="shape=folder;fontStyle=1;spacingTop=10;tabWidth=40;tabHeight=14;tabPosition=left;html=1;whiteSpace=wrap;" vertex="1" parent="1">
          <mxGeometry x="340" y="70" width="200" height="120" as="geometry" />
        </mxCell>
        <mxCell id="PTccaOiWmIQxSzP1MfT7-5" value="Lib" style="shape=folder;fontStyle=1;spacingTop=10;tabWidth=40;tabHeight=14;tabPosition=left;html=1;whiteSpace=wrap;" vertex="1" parent="1">
          <mxGeometry x="340" y="320" width="200" height="120" as="geometry" />
        </mxCell>
      </root>
    </mxGraphModel>
  </diagram>
</mxfile>
